<svg xmlns="http://www.w3.org/2000/svg" viewBox="0 0 44 60"><defs><style>.cls-1{fill:none;stroke:#603393;stroke-linecap:round;stroke-linejoin:round;stroke-width:2px;}</style></defs><title>Asset 4</title><g id="Layer_2" data-name="Layer 2"><g id="Layer_1-2" data-name="Layer 1"><polyline class="cls-1" points="32.75 5 43 5 43 59 1 59 1 5 11.25 5"/><path class="cls-1" d="M32,1V5a4,4,0,0,1-4,4H16a4,4,0,0,1-4-4V1"/><line class="cls-1" x1="12" y1="1" x2="32" y2="1"/><line class="cls-1" x1="35" y1="33" x2="22.95" y2="33"/><polyline class="cls-1" points="15.95 30 11.95 35 8.95 33"/><polyline class="cls-1" points="15.95 18 11.95 23 8.95 21"/><polyline class="cls-1" points="15.95 42 11.95 47 8.95 45"/><line class="cls-1" x1="35" y1="21" x2="22.95" y2="21"/><line class="cls-1" x1="35" y1="45" x2="22.95" y2="45"/></g></g></svg>